<svg xmlns="http://www.w3.org/2000/svg" width="1492" height="920" style="cursor: move;"><g transform="translate(-975.1741409845433,-790.6747379976828) scale(2.5175143470097185)"><path class="link" marker-end="" d="M586,394, 766,394" style="stroke-width: 0.5; stroke-opacity: 1; stroke: rgb(80, 80, 80);"></path><path class="link" marker-end="" d="M586,394, 766,424" style="stroke-width: 0.5; stroke-opacity: 1; stroke: rgb(80, 80, 80);"></path><path class="link" marker-end="" d="M586,394, 766,454" style="stroke-width: 0.5; stroke-opacity: 1; stroke: rgb(80, 80, 80);"></path><path class="link" marker-end="" d="M586,394, 766,484" style="stroke-width: 0.5; stroke-opacity: 1; stroke: rgb(80, 80, 80);"></path><path class="link" marker-end="" d="M586,394, 766,514" style="stroke-width: 0.5; stroke-opacity: 1; stroke: rgb(80, 80, 80);"></path><path class="link" marker-end="" d="M586,394, 766,544" style="stroke-width: 0.5; stroke-opacity: 1; stroke: rgb(80, 80, 80);"></path><path class="link" marker-end="" d="M586,394, 766,574" style="stroke-width: 0.5; stroke-opacity: 1; stroke: rgb(80, 80, 80);"></path><path class="link" marker-end="" d="M586,424, 766,394" style="stroke-width: 0.5; stroke-opacity: 1; stroke: rgb(80, 80, 80);"></path><path class="link" marker-end="" d="M586,424, 766,424" style="stroke-width: 0.5; stroke-opacity: 1; stroke: rgb(80, 80, 80);"></path><path class="link" marker-end="" d="M586,424, 766,454" style="stroke-width: 0.5; stroke-opacity: 1; stroke: rgb(80, 80, 80);"></path><path class="link" marker-end="" d="M586,424, 766,484" style="stroke-width: 0.5; stroke-opacity: 1; stroke: rgb(80, 80, 80);"></path><path class="link" marker-end="" d="M586,424, 766,514" style="stroke-width: 0.5; stroke-opacity: 1; stroke: rgb(80, 80, 80);"></path><path class="link" marker-end="" d="M586,424, 766,544" style="stroke-width: 0.5; stroke-opacity: 1; stroke: rgb(80, 80, 80);"></path><path class="link" marker-end="" d="M586,424, 766,574" style="stroke-width: 0.5; stroke-opacity: 1; stroke: rgb(80, 80, 80);"></path><path class="link" marker-end="" d="M586,454, 766,394" style="stroke-width: 0.5; stroke-opacity: 1; stroke: rgb(80, 80, 80);"></path><path class="link" marker-end="" d="M586,454, 766,424" style="stroke-width: 0.5; stroke-opacity: 1; stroke: rgb(80, 80, 80);"></path><path class="link" marker-end="" d="M586,454, 766,454" style="stroke-width: 0.5; stroke-opacity: 1; stroke: rgb(80, 80, 80);"></path><path class="link" marker-end="" d="M586,454, 766,484" style="stroke-width: 0.5; stroke-opacity: 1; stroke: rgb(80, 80, 80);"></path><path class="link" marker-end="" d="M586,454, 766,514" style="stroke-width: 0.5; stroke-opacity: 1; stroke: rgb(80, 80, 80);"></path><path class="link" marker-end="" d="M586,454, 766,544" style="stroke-width: 0.5; stroke-opacity: 1; stroke: rgb(80, 80, 80);"></path><path class="link" marker-end="" d="M586,454, 766,574" style="stroke-width: 0.5; stroke-opacity: 1; stroke: rgb(80, 80, 80);"></path><path class="link" marker-end="" d="M586,484, 766,394" style="stroke-width: 0.5; stroke-opacity: 1; stroke: rgb(80, 80, 80);"></path><path class="link" marker-end="" d="M586,484, 766,424" style="stroke-width: 0.5; stroke-opacity: 1; stroke: rgb(80, 80, 80);"></path><path class="link" marker-end="" d="M586,484, 766,454" style="stroke-width: 0.5; stroke-opacity: 1; stroke: rgb(80, 80, 80);"></path><path class="link" marker-end="" d="M586,484, 766,484" style="stroke-width: 0.5; stroke-opacity: 1; stroke: rgb(80, 80, 80);"></path><path class="link" marker-end="" d="M586,484, 766,514" style="stroke-width: 0.5; stroke-opacity: 1; stroke: rgb(80, 80, 80);"></path><path class="link" marker-end="" d="M586,484, 766,544" style="stroke-width: 0.5; stroke-opacity: 1; stroke: rgb(80, 80, 80);"></path><path class="link" marker-end="" d="M586,484, 766,574" style="stroke-width: 0.5; stroke-opacity: 1; stroke: rgb(80, 80, 80);"></path><path class="link" marker-end="" d="M586,514, 766,394" style="stroke-width: 0.5; stroke-opacity: 1; stroke: rgb(80, 80, 80);"></path><path class="link" marker-end="" d="M586,514, 766,424" style="stroke-width: 0.5; stroke-opacity: 1; stroke: rgb(80, 80, 80);"></path><path class="link" marker-end="" d="M586,514, 766,454" style="stroke-width: 0.5; stroke-opacity: 1; stroke: rgb(80, 80, 80);"></path><path class="link" marker-end="" d="M586,514, 766,484" style="stroke-width: 0.5; stroke-opacity: 1; stroke: rgb(80, 80, 80);"></path><path class="link" marker-end="" d="M586,514, 766,514" style="stroke-width: 0.5; stroke-opacity: 1; stroke: rgb(80, 80, 80);"></path><path class="link" marker-end="" d="M586,514, 766,544" style="stroke-width: 0.5; stroke-opacity: 1; stroke: rgb(80, 80, 80);"></path><path class="link" marker-end="" d="M586,514, 766,574" style="stroke-width: 0.5; stroke-opacity: 1; stroke: rgb(80, 80, 80);"></path><path class="link" marker-end="" d="M586,544, 766,394" style="stroke-width: 0.5; stroke-opacity: 1; stroke: rgb(80, 80, 80);"></path><path class="link" marker-end="" d="M586,544, 766,424" style="stroke-width: 0.5; stroke-opacity: 1; stroke: rgb(80, 80, 80);"></path><path class="link" marker-end="" d="M586,544, 766,454" style="stroke-width: 0.5; stroke-opacity: 1; stroke: rgb(80, 80, 80);"></path><path class="link" marker-end="" d="M586,544, 766,484" style="stroke-width: 0.5; stroke-opacity: 1; stroke: rgb(80, 80, 80);"></path><path class="link" marker-end="" d="M586,544, 766,514" style="stroke-width: 0.5; stroke-opacity: 1; stroke: rgb(80, 80, 80);"></path><path class="link" marker-end="" d="M586,544, 766,544" style="stroke-width: 0.5; stroke-opacity: 1; stroke: rgb(80, 80, 80);"></path><path class="link" marker-end="" d="M586,544, 766,574" style="stroke-width: 0.5; stroke-opacity: 1; stroke: rgb(80, 80, 80);"></path><path class="link" marker-end="" d="M586,574, 766,394" style="stroke-width: 0.5; stroke-opacity: 1; stroke: rgb(80, 80, 80);"></path><path class="link" marker-end="" d="M586,574, 766,424" style="stroke-width: 0.5; stroke-opacity: 1; stroke: rgb(80, 80, 80);"></path><path class="link" marker-end="" d="M586,574, 766,454" style="stroke-width: 0.5; stroke-opacity: 1; stroke: rgb(80, 80, 80);"></path><path class="link" marker-end="" d="M586,574, 766,484" style="stroke-width: 0.5; stroke-opacity: 1; stroke: rgb(80, 80, 80);"></path><path class="link" marker-end="" d="M586,574, 766,514" style="stroke-width: 0.5; stroke-opacity: 1; stroke: rgb(80, 80, 80);"></path><path class="link" marker-end="" d="M586,574, 766,544" style="stroke-width: 0.5; stroke-opacity: 1; stroke: rgb(80, 80, 80);"></path><path class="link" marker-end="" d="M586,574, 766,574" style="stroke-width: 0.5; stroke-opacity: 1; stroke: rgb(80, 80, 80);"></path><path class="link" marker-end="" d="M766,394, 946,484" style="stroke-width: 0.5; stroke-opacity: 1; stroke: rgb(80, 80, 80);"></path><path class="link" marker-end="" d="M766,424, 946,484" style="stroke-width: 0.5; stroke-opacity: 1; stroke: rgb(80, 80, 80);"></path><path class="link" marker-end="" d="M766,454, 946,484" style="stroke-width: 0.5; stroke-opacity: 1; stroke: rgb(80, 80, 80);"></path><path class="link" marker-end="" d="M766,484, 946,484" style="stroke-width: 0.5; stroke-opacity: 1; stroke: rgb(80, 80, 80);"></path><path class="link" marker-end="" d="M766,514, 946,484" style="stroke-width: 0.5; stroke-opacity: 1; stroke: rgb(80, 80, 80);"></path><path class="link" marker-end="" d="M766,544, 946,484" style="stroke-width: 0.5; stroke-opacity: 1; stroke: rgb(80, 80, 80);"></path><path class="link" marker-end="" d="M766,574, 946,484" style="stroke-width: 0.5; stroke-opacity: 1; stroke: rgb(80, 80, 80);"></path><circle r="10" class="node" id="0_0" cx="586" cy="394" style="fill: rgb(255, 255, 255); stroke: rgb(51, 51, 51);"></circle><circle r="10" class="node" id="0_1" cx="586" cy="424" style="fill: rgb(255, 255, 255); stroke: rgb(51, 51, 51);"></circle><circle r="10" class="node" id="0_2" cx="586" cy="454" style="fill: rgb(255, 255, 255); stroke: rgb(51, 51, 51);"></circle><circle r="10" class="node" id="0_3" cx="586" cy="484" style="fill: rgb(255, 255, 255); stroke: rgb(51, 51, 51);"></circle><circle r="10" class="node" id="0_4" cx="586" cy="514" style="fill: rgb(255, 255, 255); stroke: rgb(51, 51, 51);"></circle><circle r="10" class="node" id="0_5" cx="586" cy="544" style="fill: rgb(255, 255, 255); stroke: rgb(51, 51, 51);"></circle><circle r="10" class="node" id="0_6" cx="586" cy="574" style="fill: rgb(255, 255, 255); stroke: rgb(51, 51, 51);"></circle><circle r="10" class="node" id="1_0" cx="766" cy="394" style="fill: rgb(255, 255, 255); stroke: rgb(51, 51, 51);"></circle><circle r="10" class="node" id="1_1" cx="766" cy="424" style="fill: rgb(255, 255, 255); stroke: rgb(51, 51, 51);"></circle><circle r="10" class="node" id="1_2" cx="766" cy="454" style="fill: rgb(255, 255, 255); stroke: rgb(51, 51, 51);"></circle><circle r="10" class="node" id="1_3" cx="766" cy="484" style="fill: rgb(255, 255, 255); stroke: rgb(51, 51, 51);"></circle><circle r="10" class="node" id="1_4" cx="766" cy="514" style="fill: rgb(255, 255, 255); stroke: rgb(51, 51, 51);"></circle><circle r="10" class="node" id="1_5" cx="766" cy="544" style="fill: rgb(255, 255, 255); stroke: rgb(51, 51, 51);"></circle><circle r="10" class="node" id="1_6" cx="766" cy="574" style="fill: rgb(255, 255, 255); stroke: rgb(51, 51, 51);"></circle><circle r="10" class="node" id="2_0" cx="946" cy="484" style="fill: rgb(255, 255, 255); stroke: rgb(51, 51, 51);"></circle><text class="text" dy=".35em" x="551" y="614" style="font-size: 12px;"></text><text class="text" dy=".35em" x="731" y="614" style="font-size: 12px;"></text><text class="text" dy=".35em" x="911" y="614" style="font-size: 12px;"></text></g><defs><marker id="arrow" viewBox="0 -5 10 10" markerWidth="7" markerHeight="7" orient="auto" refX="40"><path d="M0,-5L10,0L0,5" style="stroke: rgb(80, 80, 80); fill: none;"></path></marker></defs></svg>